<svg width="220" height="21" viewBox="0 0 220 21" fill="none" xmlns="http://www.w3.org/2000/svg">
<g clip-path="url(#clip0_1_97)">
<path d="M14.875 2.46875H2.125C0.956 2.46875 0 3.42575 0 4.59375V17.3438C0 18.5138 0.956 19.4688 2.125 19.4688H8.574V13.3728H6.537V10.7177H8.574V9.38775C8.574 7.33675 10.087 5.73075 12.019 5.73075H13.896V8.72875H12.217C11.779 8.72875 11.648 8.98075 11.648 9.32975V10.7177H13.896V13.3728H11.648V19.4688H14.875C16.045 19.4688 17 18.5138 17 17.3438V4.59375C17 3.42575 16.045 2.46875 14.875 2.46875Z" fill="black"/>
</g>
<path d="M45 6.19975C44.337 6.49275 43.626 6.69175 42.879 6.78075C43.641 6.32375 44.227 5.59975 44.502 4.73875C43.79 5.16175 42.999 5.46875 42.158 5.63375C41.484 4.91675 40.523 4.46875 39.462 4.46875C37.423 4.46875 35.769 6.12075 35.769 8.16075C35.769 8.44975 35.801 8.73175 35.865 9.00275C32.795 8.84775 30.074 7.37775 28.253 5.14475C27.935 5.68975 27.753 6.32475 27.753 6.99975C27.753 8.28175 28.405 9.41175 29.396 10.0738C28.791 10.0547 28.221 9.88875 27.723 9.61275C27.723 9.62775 27.723 9.64275 27.723 9.65875C27.723 11.4478 28.996 12.9417 30.685 13.2797C30.375 13.3637 30.049 13.4087 29.712 13.4087C29.475 13.4087 29.243 13.3877 29.018 13.3438C29.487 14.8118 30.852 15.8787 32.467 15.9087C31.204 16.8987 29.612 17.4888 27.882 17.4888C27.583 17.4888 27.29 17.4707 27.001 17.4358C28.635 18.4847 30.576 19.0947 32.662 19.0947C39.454 19.0947 43.169 13.4678 43.169 8.58875C43.169 8.42775 43.165 8.26775 43.157 8.10975C43.878 7.59175 44.505 6.94075 45 6.19975Z" fill="black"/>
<g clip-path="url(#clip1_1_97)">
<path d="M58.85 4.28575C58.85 5.28975 58.109 6.10275 56.889 6.10275C55.741 6.10375 55 5.29075 55 4.28575C55 3.25775 55.765 2.46875 56.937 2.46875C58.108 2.46875 58.826 3.25775 58.85 4.28575ZM55.096 19.2307V7.53775H58.73V19.2297H55.096V19.2307Z" fill="black"/>
<path d="M60.905 11.2688C60.905 9.80976 60.858 8.59076 60.81 7.53876H63.966L64.134 9.16476H64.205C64.683 8.39876 65.855 7.27576 67.815 7.27576C70.206 7.27476 72 8.87676 72 12.3208V19.2308H68.365V12.7508C68.365 11.2448 67.84 10.2168 66.524 10.2168C65.519 10.2168 64.922 10.9098 64.66 11.5798C64.563 11.8188 64.54 12.1538 64.54 12.4878V19.2308H60.905V11.2688Z" fill="black"/>
</g>
<defs>
<clipPath id="clip0_1_97">
<rect width="17" height="17" fill="white" transform="translate(0 2.46875)"/>
</clipPath>
<clipPath id="clip1_1_97">
<rect width="17" height="17" fill="white" transform="translate(55 2.46875)"/>
</clipPath>
</defs>
</svg>
