<svg width="61" height="60" viewBox="0 0 61 60" fill="none" xmlns="http://www.w3.org/2000/svg">
<path d="M38 24.3164C37.4106 24.5769 36.7786 24.7538 36.1146 24.8329C36.792 24.4267 37.312 23.7831 37.5573 23.0178C36.9244 23.3938 36.2213 23.6667 35.4737 23.8133C34.8746 23.176 34.0213 22.7778 33.0773 22.7778C31.2649 22.7778 29.7946 24.2462 29.7946 26.0596C29.7946 26.3164 29.8231 26.5671 29.88 26.808C27.1511 26.6702 24.7324 25.3636 23.1137 23.3787C22.8311 23.8631 22.6693 24.4276 22.6693 25.0276C22.6693 26.1671 23.2489 27.1716 24.1297 27.76C23.592 27.7431 23.0853 27.5956 22.6426 27.3502C22.6426 27.3636 22.6426 27.3769 22.6426 27.3911C22.6426 28.9813 23.7742 30.3084 25.2755 30.6098C25 30.6844 24.7102 30.7244 24.4106 30.7244C24.2 30.7244 23.9937 30.7049 23.7937 30.6658C24.2106 31.9707 25.424 32.9191 26.8595 32.9458C25.7369 33.8267 24.3217 34.3511 22.784 34.3511C22.5182 34.3511 22.2577 34.3351 22.0009 34.304C23.4533 35.2356 25.1786 35.7787 27.0329 35.7787C33.0702 35.7787 36.3724 30.7769 36.3724 26.44C36.3724 26.2969 36.3689 26.1547 36.3617 26.0142C37.0026 25.5538 37.56 24.9751 38 24.3164Z" fill="white"/>
</svg>
